<?xml version="1.0" encoding="utf-8"?><svg xmlns="http://www.w3.org/2000/svg" xmlns:xlink="http://www.w3.org/1999/xlink"><symbol fill="none" viewBox="0 0 16 24" id="arrow-down" xmlns="http://www.w3.org/2000/svg"><path d="m16 16-1.41-1.41L9 20.17V0H7v20.17l-5.58-5.59L0 16l8 8 8-8Z" fill="#fff"/></symbol><symbol fill="none" viewBox="0 0 25 16" id="arrow-right" xmlns="http://www.w3.org/2000/svg"><path d="m16.5 0-1.41 1.41L20.67 7H.5v2h20.17l-5.59 5.58L16.5 16l8-8-8-8Z" fill="#FBD784"/></symbol><symbol fill="none" viewBox="0 0 30 30" id="arrow-slider-left" xmlns="http://www.w3.org/2000/svg"><path d="M19.419 4.394 8.812 15 19.42 25.606l1.768-1.767L12.348 15l8.84-8.839-1.768-1.767Z" fill="#fff"/></symbol><symbol fill="none" viewBox="0 0 30 30" id="arrow-slider-right" xmlns="http://www.w3.org/2000/svg"><path d="M10.581 25.606 21.188 15 10.58 4.394 8.813 6.16 17.652 15l-8.84 8.839 1.768 1.767Z" fill="#fff"/></symbol><symbol fill="none" viewBox="0 0 70 70" id="button-submit" xmlns="http://www.w3.org/2000/svg"><path d="M.54 8a8 8 0 0 1 8-8h53.135a8 8 0 0 1 8 8v61.136H.54V8Z" fill="#FFA343"/><path d="M31.172 40.283 36.455 35l-5.283-5.283 1.63-1.63L39.717 35l-6.913 6.914-1.63-1.63Z" fill="#000"/></symbol><symbol fill="none" viewBox="0 0 171 47" id="footer-logo" xmlns="http://www.w3.org/2000/svg"><path d="M33.484 17.82c0 4.032-.719 7.414-2.156 10.149-1.422 2.718-3.516 4.71-6.281 5.976l8.25 9.211h-9.305L17.71 35.47h-.54c-5.25 0-9.28-1.524-12.093-4.57C2.265 27.851.859 23.476.859 17.772.86 12.07 2.265 7.72 5.078 4.72 7.906 1.703 11.953.195 17.218.195c5.266 0 9.29 1.516 12.07 4.547 2.798 3.031 4.196 7.39 4.196 13.078Zm-25.008 0c0 3.828.727 6.711 2.18 8.649 1.453 1.937 3.625 2.906 6.516 2.906 5.796 0 8.695-3.852 8.695-11.555 0-7.718-2.883-11.578-8.649-11.578-2.89 0-5.07.977-6.539 2.93-1.468 1.937-2.203 4.82-2.203 8.648ZM74.441 35h-8.274l-4.64-18c-.172-.64-.47-1.96-.891-3.96-.406-2.017-.64-3.368-.703-4.056-.094.844-.328 2.204-.703 4.079-.375 1.859-.664 3.187-.867 3.984L53.745 35h-8.25L36.753.734h7.149l4.382 18.703c.766 3.454 1.32 6.446 1.665 8.977.093-.89.304-2.266.632-4.125.344-1.875.664-3.328.961-4.36L56.534.735h6.868l4.992 19.196c.219.86.492 2.172.82 3.937.328 1.766.578 3.281.75 4.547.156-1.219.406-2.734.75-4.547.344-1.828.656-3.305.938-4.43L76.01.735h7.148L74.441 35Zm33.245 0H87.952V.734h19.734v5.954H95.218v7.523h11.601v5.953H95.218V29h12.468v6Zm14.918-19.055h2.344c2.296 0 3.992-.383 5.086-1.148 1.093-.766 1.64-1.969 1.64-3.61 0-1.624-.562-2.78-1.687-3.468-1.11-.688-2.836-1.032-5.18-1.032h-2.203v9.258Zm0 5.907V35h-7.266V.734h9.985c4.656 0 8.101.852 10.336 2.555 2.234 1.688 3.351 4.258 3.351 7.711 0 2.016-.555 3.813-1.664 5.39-1.109 1.563-2.68 2.79-4.711 3.68 5.156 7.703 8.516 12.68 10.078 14.93h-8.062l-8.18-13.148h-3.867Zm20.589-13.055h7.828l4.946 14.742c.422 1.281.711 2.797.867 4.547h.14a20.1 20.1 0 0 1 1.008-4.547l4.852-14.742h7.664l-11.086 29.555c-1.016 2.734-2.469 4.78-4.359 6.14-1.875 1.36-4.071 2.04-6.586 2.04-1.235 0-2.446-.134-3.633-.4v-5.671c.859.203 1.797.305 2.812.305 1.266 0 2.368-.391 3.305-1.172.953-.766 1.695-1.93 2.227-3.492l.421-1.29-10.406-26.015Z" fill="#fff"/></symbol><symbol fill="none" viewBox="0 0 24 24" id="icon-facebook" xmlns="http://www.w3.org/2000/svg"><g clip-path="url(#ga)"><path d="M14.992 5.819H17V2.162C16.654 2.112 15.462 2 14.074 2 11.18 2 9.195 3.904 9.195 7.404v3.221H6v4.088h3.195V25h3.918V14.714h3.066l.486-4.088h-3.553V7.809c0-1.181.305-1.99 1.88-1.99Z" fill="#fff"/></g><defs><clipPath id="ga"><path fill="#fff" d="M0 0h24v24H0z"/></clipPath></defs></symbol><symbol fill="none" viewBox="0 0 24 24" id="icon-instagram" xmlns="http://www.w3.org/2000/svg"><path d="M7.8 2h8.4A5.8 5.8 0 0 1 22 7.8v8.4a5.8 5.8 0 0 1-5.8 5.8H7.8A5.8 5.8 0 0 1 2 16.2V7.8A5.8 5.8 0 0 1 7.8 2Zm-.2 2A3.6 3.6 0 0 0 4 7.6v8.8A3.6 3.6 0 0 0 7.6 20h8.8a3.6 3.6 0 0 0 3.6-3.6V7.6A3.6 3.6 0 0 0 16.4 4H7.6Zm9.65 1.5a1.25 1.25 0 1 1 0 2.5 1.25 1.25 0 0 1 0-2.5ZM12 7a5 5 0 1 1 0 10 5 5 0 0 1 0-10Zm0 2a3 3 0 1 0 0 6 3 3 0 0 0 0-6Z" fill="#fff"/></symbol><symbol fill="none" viewBox="0 0 24 24" id="icon-twitter" xmlns="http://www.w3.org/2000/svg"><path d="M22.918 6.012a8.58 8.58 0 0 1-2.464.676 4.305 4.305 0 0 0 1.886-2.374 8.591 8.591 0 0 1-2.725 1.041 4.292 4.292 0 0 0-7.313 3.914 12.184 12.184 0 0 1-8.846-4.483 4.271 4.271 0 0 0-.58 2.157 4.29 4.29 0 0 0 1.908 3.572 4.276 4.276 0 0 1-1.943-.537v.054a4.295 4.295 0 0 0 3.442 4.209 4.296 4.296 0 0 1-1.938.073 4.296 4.296 0 0 0 4.009 2.98 8.61 8.61 0 0 1-5.33 1.838c-.347 0-.688-.02-1.024-.06A12.147 12.147 0 0 0 8.579 21c7.894 0 12.21-6.54 12.21-12.21 0-.187-.004-.372-.012-.556a8.719 8.719 0 0 0 2.141-2.222Z" fill="#fff"/></symbol><symbol fill="none" viewBox="0 0 20 20" id="icon-zoom" xmlns="http://www.w3.org/2000/svg"><path d="m15.564 16.34-4.762-4.764a5 5 0 1 1 1.179-1.18l4.762 4.764-1.178 1.178-.001.001ZM7.904 4.166a3.333 3.333 0 1 0 2.43 1.053l.505.5-.568-.567-.01-.01a3.31 3.31 0 0 0-2.357-.976Z" fill="#fff"/></symbol><symbol fill="none" viewBox="0 0 86 23" id="logo" xmlns="http://www.w3.org/2000/svg"><path d="M16.707 9.41c0 2.016-.36 3.707-1.078 5.074-.711 1.36-1.758 2.356-3.14 2.989l4.124 4.605h-4.652l-3.14-3.844h-.27c-2.625 0-4.64-.761-6.047-2.285-1.406-1.523-2.11-3.71-2.11-6.562 0-2.852.704-5.028 2.11-6.528C3.918 1.352 5.94.598 8.574.598c2.633 0 4.645.757 6.035 2.273 1.399 1.516 2.098 3.695 2.098 6.54Zm-12.504 0c0 1.914.363 3.356 1.09 4.324.727.97 1.812 1.454 3.258 1.454 2.898 0 4.347-1.926 4.347-5.778 0-3.86-1.441-5.789-4.324-5.789-1.445 0-2.535.488-3.27 1.465-.734.969-1.1 2.41-1.1 4.324ZM37.185 18H33.05l-2.32-9c-.087-.32-.235-.98-.446-1.98-.203-1.008-.32-1.684-.352-2.028-.047.422-.164 1.102-.351 2.04a45.767 45.767 0 0 1-.434 1.991L26.838 18h-4.125L18.342.867h3.574l2.191 9.352c.383 1.726.66 3.222.832 4.488a33.23 33.23 0 0 1 .317-2.063c.171-.937.332-1.664.48-2.18L28.232.868h3.434l2.496 9.598c.11.43.246 1.086.41 1.969.164.882.29 1.64.375 2.273.078-.61.203-1.367.375-2.273a39.59 39.59 0 0 1 .469-2.215L37.97.867h3.574L37.185 18Zm16.623 0h-9.867V.867h9.867v2.977h-6.234v3.761h5.8v2.977h-5.8V15h6.234v3Zm7.459-9.527h1.172c1.148 0 1.996-.192 2.543-.575.547-.382.82-.984.82-1.804 0-.813-.281-1.39-.844-1.735-.554-.343-1.418-.515-2.59-.515h-1.101v4.629Zm0 2.953V18h-3.633V.867h4.992c2.328 0 4.051.426 5.168 1.278C68.911 2.988 69.47 4.273 69.47 6c0 1.008-.277 1.906-.832 2.695-.555.782-1.34 1.395-2.356 1.84 2.579 3.852 4.258 6.34 5.04 7.465H67.29l-4.09-6.574h-1.933Zm10.295-6.528h3.914l2.472 7.372c.211.64.356 1.398.434 2.273h.07c.086-.805.254-1.563.504-2.273l2.426-7.372h3.832L79.67 19.676c-.508 1.367-1.234 2.39-2.18 3.07-.937.68-2.035 1.02-3.293 1.02a8.296 8.296 0 0 1-1.816-.2v-2.835c.43.101.898.152 1.406.152.633 0 1.184-.195 1.653-.586.476-.383.847-.965 1.113-1.746l.21-.645-5.202-13.008Z" fill="#fff"/></symbol></svg>