<svg width="171" height="47" fill="none" xmlns="http://www.w3.org/2000/svg"><path d="M33.484 17.82c0 4.032-.719 7.414-2.156 10.149-1.422 2.718-3.516 4.71-6.281 5.976l8.25 9.211h-9.305L17.71 35.47h-.54c-5.25 0-9.28-1.524-12.093-4.57C2.265 27.851.859 23.476.859 17.772.86 12.07 2.265 7.72 5.078 4.72 7.906 1.703 11.953.195 17.218.195c5.266 0 9.29 1.516 12.07 4.547 2.798 3.031 4.196 7.39 4.196 13.078zm-25.008 0c0 3.828.727 6.711 2.18 8.649 1.453 1.937 3.625 2.906 6.516 2.906 5.796 0 8.695-3.852 8.695-11.555 0-7.718-2.883-11.578-8.649-11.578-2.89 0-5.07.977-6.539 2.93-1.468 1.937-2.203 4.82-2.203 8.648zM74.441 35h-8.274l-4.64-18c-.172-.64-.47-1.96-.891-3.96-.406-2.017-.64-3.368-.703-4.056-.094.844-.328 2.204-.703 4.079-.375 1.859-.664 3.187-.867 3.984L53.745 35h-8.25L36.753.734h7.149l4.382 18.703c.766 3.454 1.32 6.446 1.665 8.977.093-.89.304-2.266.632-4.125.344-1.875.664-3.328.961-4.36L56.534.735h6.868l4.992 19.196c.219.86.492 2.172.82 3.937.328 1.766.578 3.281.75 4.547.156-1.219.406-2.734.75-4.547.344-1.828.656-3.305.938-4.43L76.01.735h7.148L74.441 35zm33.245 0H87.952V.734h19.734v5.954H95.218v7.523h11.601v5.953H95.218V29h12.468v6zm14.918-19.055h2.344c2.296 0 3.992-.383 5.086-1.148 1.093-.766 1.64-1.969 1.64-3.61 0-1.624-.562-2.78-1.687-3.468-1.11-.688-2.836-1.032-5.18-1.032h-2.203v9.258zm0 5.907V35h-7.266V.734h9.985c4.656 0 8.101.852 10.336 2.555 2.234 1.688 3.351 4.258 3.351 7.711 0 2.016-.555 3.813-1.664 5.39-1.109 1.563-2.68 2.79-4.711 3.68 5.156 7.703 8.516 12.68 10.078 14.93h-8.062l-8.18-13.148h-3.867zm20.589-13.055h7.828l4.946 14.742c.422 1.281.711 2.797.867 4.547h.14a20.1 20.1 0 011.008-4.547l4.852-14.742h7.664l-11.086 29.555c-1.016 2.734-2.469 4.78-4.359 6.14-1.875 1.36-4.071 2.04-6.586 2.04-1.235 0-2.446-.134-3.633-.4v-5.671c.859.203 1.797.305 2.812.305 1.266 0 2.368-.391 3.305-1.172.953-.766 1.695-1.93 2.227-3.492l.421-1.29-10.406-26.015z" fill="#fff"/></svg>