<svg width="86" height="23" fill="none" xmlns="http://www.w3.org/2000/svg"><path d="M16.707 9.41c0 2.016-.36 3.707-1.078 5.074-.711 1.36-1.758 2.356-3.14 2.989l4.124 4.605h-4.652l-3.14-3.844h-.27c-2.625 0-4.64-.761-6.047-2.285-1.406-1.523-2.11-3.71-2.11-6.562 0-2.852.704-5.028 2.11-6.528C3.918 1.352 5.94.598 8.574.598c2.633 0 4.645.757 6.035 2.273 1.399 1.516 2.098 3.695 2.098 6.54zm-12.504 0c0 1.914.363 3.356 1.09 4.324.727.97 1.812 1.454 3.258 1.454 2.898 0 4.347-1.926 4.347-5.778 0-3.86-1.441-5.789-4.324-5.789-1.445 0-2.535.488-3.27 1.465-.734.969-1.1 2.41-1.1 4.324zM37.185 18H33.05l-2.32-9c-.087-.32-.235-.98-.446-1.98-.203-1.008-.32-1.684-.352-2.028-.047.422-.164 1.102-.351 2.04a45.767 45.767 0 01-.434 1.991L26.838 18h-4.125L18.342.867h3.574l2.191 9.352c.383 1.726.66 3.222.832 4.488a33.23 33.23 0 01.317-2.063c.171-.937.332-1.664.48-2.18L28.232.868h3.434l2.496 9.598c.11.43.246 1.086.41 1.969.164.882.29 1.64.375 2.273.078-.61.203-1.367.375-2.273a39.59 39.59 0 01.469-2.215L37.97.867h3.574L37.185 18zm16.623 0h-9.867V.867h9.867v2.977h-6.234v3.761h5.8v2.977h-5.8V15h6.234v3zm7.459-9.527h1.172c1.148 0 1.996-.192 2.543-.575.547-.382.82-.984.82-1.804 0-.813-.281-1.39-.844-1.735-.554-.343-1.418-.515-2.59-.515h-1.101v4.629zm0 2.953V18h-3.633V.867h4.992c2.328 0 4.051.426 5.168 1.278C68.911 2.988 69.47 4.273 69.47 6c0 1.008-.277 1.906-.832 2.695-.555.782-1.34 1.395-2.356 1.84 2.579 3.852 4.258 6.34 5.04 7.465H67.29l-4.09-6.574h-1.933zm10.295-6.528h3.914l2.472 7.372c.211.64.356 1.398.434 2.273h.07c.086-.805.254-1.563.504-2.273l2.426-7.372h3.832L79.67 19.676c-.508 1.367-1.234 2.39-2.18 3.07-.937.68-2.035 1.02-3.293 1.02a8.296 8.296 0 01-1.816-.2v-2.835c.43.101.898.152 1.406.152.633 0 1.184-.195 1.653-.586.476-.383.847-.965 1.113-1.746l.21-.645-5.202-13.008z" fill="#fff"/></svg>